<?xml version="1.0" encoding="UTF-8" standalone="no"?>
<!-- Created with Inkscape (http://www.inkscape.org/) -->

<svg
   width="1920"
   height="1080"
   viewBox="0 0 507.99999 285.75"
   version="1.1"
   id="svg5"
   xml:space="preserve"
   inkscape:version="1.2.1 (9c6d41e4, 2022-07-14)"
   sodipodi:docname="task-creation-flow.svg"
   xmlns:inkscape="http://www.inkscape.org/namespaces/inkscape"
   xmlns:sodipodi="http://sodipodi.sourceforge.net/DTD/sodipodi-0.dtd"
   xmlns="http://www.w3.org/2000/svg"
   xmlns:svg="http://www.w3.org/2000/svg"><sodipodi:namedview
     id="namedview7"
     pagecolor="#ffffff"
     bordercolor="#000000"
     borderopacity="0.25"
     inkscape:showpageshadow="2"
     inkscape:pageopacity="0.0"
     inkscape:pagecheckerboard="0"
     inkscape:deskcolor="#d1d1d1"
     inkscape:document-units="px"
     showgrid="true"
     inkscape:zoom="0.39623369"
     inkscape:cx="956.50625"
     inkscape:cy="629.67891"
     inkscape:window-width="1386"
     inkscape:window-height="847"
     inkscape:window-x="54"
     inkscape:window-y="25"
     inkscape:window-maximized="1"
     inkscape:current-layer="svg5"><inkscape:grid
       type="xygrid"
       id="grid2612"
       originx="0"
       originy="0" /></sodipodi:namedview><defs
     id="defs2"><clipPath
       clipPathUnits="userSpaceOnUse"
       id="clipPath3958-3"><path
         d="M 0,0 H 2483.3333 V 3509.0581 H 0 Z"
         clip-rule="evenodd"
         id="path3956-6" /></clipPath></defs><rect
     style="fill:#ffffff;stroke-width:105.353"
     id="rect1409"
     width="508"
     height="285.75"
     x="0"
     y="0" /><g
     inkscape:label="Layer 1"
     inkscape:groupmode="layer"
     id="layer1" /><g
     id="g3952"
     transform="matrix(0.20686076,0,0,0.20686076,17.646425,-15.187906)"><g
       id="g3954"
       clip-path="url(#clipPath3958-3)"><g
         id="g3960"
         transform="matrix(2.9991949,0,0,2.9991949,1.4995974,1.4995974)"><path
           d="m 380,100 v 20 l 0.22,16.99"
           style="fill:none;stroke:#000000;stroke-width:1;stroke-linecap:butt;stroke-linejoin:miter;stroke-miterlimit:10;stroke-dasharray:none;stroke-opacity:1"
           id="path3962" /><path
           d="m 380.29001,142.24 -3.59,-6.95001 3.51999,1.70001 3.48001,-1.79 z"
           style="fill:#000000;fill-opacity:1;fill-rule:nonzero;stroke:none"
           id="path3964" /><path
           d="m 380.29001,142.24 -3.59,-6.95001 3.51999,1.70001 3.48001,-1.79 z"
           style="fill:none;stroke:#000000;stroke-width:1;stroke-linecap:butt;stroke-linejoin:miter;stroke-miterlimit:10;stroke-dasharray:none;stroke-opacity:1"
           id="path3966" /><path
           d="m 329,40 h 102 c 0.59094,0 1.17621,0.05764 1.75577,0.172932 0.57959,0.115284 1.14236,0.286003 1.68832,0.512149 0.54596,0.226147 1.06461,0.503376 1.55597,0.831688 0.49136,0.328316 0.94598,0.701405 1.36386,1.119267 0.41785,0.417866 0.79093,0.872475 1.11923,1.363827 0.32831,0.491356 0.60556,1.010017 0.83173,1.555984 0.22614,0.545963 0.39685,1.108742 0.51212,1.688336 0.11532,0.579593 0.17297,1.164863 0.173,1.755817 v 42 c -3e-5,0.590942 -0.0577,1.176208 -0.173,1.755806 -0.11527,0.57959 -0.28598,1.142364 -0.51215,1.688332 -0.22617,0.545959 -0.50339,1.064621 -0.8317,1.555976 -0.3283,0.491364 -0.70138,0.945977 -1.11923,1.363839 -0.41788,0.417862 -0.87246,0.790947 -1.36383,1.119255 -0.49136,0.328308 -1.01004,0.605537 -1.556,0.831688 -0.54596,0.226143 -1.10873,0.396865 -1.68832,0.512161 C 432.17621,99.942345 431.59094,99.999992 431,100 H 329 c -0.59097,-8e-6 -1.17624,-0.05765 -1.75583,-0.172943 -0.57962,-0.115296 -1.14239,-0.286018 -1.68835,-0.512161 -0.54599,-0.226151 -1.06464,-0.50338 -1.556,-0.831688 -0.49137,-0.328308 -0.94596,-0.701393 -1.3638,-1.119255 -0.41788,-0.417862 -0.79096,-0.872475 -1.11927,-1.363831 -0.32833,-0.491363 -0.60556,-1.010025 -0.83172,-1.555984 -0.22617,-0.545968 -0.39685,-1.108742 -0.51212,-1.688332 C 320.05762,92.176208 319.99997,91.590942 320,91 V 49 c -3e-5,-0.590954 0.0576,-1.176224 0.17291,-1.755817 0.11527,-0.579594 0.28595,-1.142376 0.51212,-1.68834 0.22616,-0.545967 0.50339,-1.064628 0.83169,-1.55598 0.32834,-0.491352 0.70142,-0.945961 1.1193,-1.363827 0.41784,-0.417862 0.87243,-0.790951 1.3638,-1.119267 0.49136,-0.328312 1.01001,-0.605541 1.556,-0.831688 0.54596,-0.226146 1.10873,-0.396865 1.68835,-0.512149 C 327.82376,40.057644 328.40903,40 329,40 Z"
           style="fill:#ffffff;fill-opacity:1;fill-rule:nonzero;stroke:none"
           id="path3968" /><path
           d="m 329,40 h 102 c 0.59094,0 1.17621,0.05764 1.75577,0.172932 0.57959,0.115284 1.14236,0.286003 1.68832,0.512149 0.54596,0.226147 1.06461,0.503376 1.55597,0.831688 0.49136,0.328316 0.94598,0.701405 1.36386,1.119267 0.41785,0.417866 0.79093,0.872475 1.11923,1.363827 0.32831,0.491356 0.60556,1.010017 0.83173,1.555984 0.22614,0.545963 0.39685,1.108742 0.51212,1.688336 0.11532,0.579593 0.17297,1.164863 0.173,1.755817 v 42 c -3e-5,0.590942 -0.0577,1.176208 -0.173,1.755806 -0.11527,0.57959 -0.28598,1.142364 -0.51215,1.688332 -0.22617,0.545959 -0.50339,1.064621 -0.8317,1.555976 -0.3283,0.491364 -0.70138,0.945977 -1.11923,1.363839 -0.41788,0.417862 -0.87246,0.790947 -1.36383,1.119255 -0.49136,0.328308 -1.01004,0.605537 -1.556,0.831688 -0.54596,0.226143 -1.10873,0.396865 -1.68832,0.512161 C 432.17621,99.942345 431.59094,99.999992 431,100 H 329 c -0.59097,-8e-6 -1.17624,-0.05765 -1.75583,-0.172943 -0.57962,-0.115296 -1.14239,-0.286018 -1.68835,-0.512161 -0.54599,-0.226151 -1.06464,-0.50338 -1.556,-0.831688 -0.49137,-0.328308 -0.94596,-0.701393 -1.3638,-1.119255 -0.41788,-0.417862 -0.79096,-0.872475 -1.11927,-1.363831 -0.32833,-0.491363 -0.60556,-1.010025 -0.83172,-1.555984 -0.22617,-0.545968 -0.39685,-1.108742 -0.51212,-1.688332 C 320.05762,92.176208 319.99997,91.590942 320,91 V 49 c -3e-5,-0.590954 0.0576,-1.176224 0.17291,-1.755817 0.11527,-0.579594 0.28595,-1.142376 0.51212,-1.68834 0.22616,-0.545967 0.50339,-1.064628 0.83169,-1.55598 0.32834,-0.491352 0.70142,-0.945961 1.1193,-1.363827 0.41784,-0.417862 0.87243,-0.790951 1.3638,-1.119267 0.49136,-0.328312 1.01001,-0.605541 1.556,-0.831688 0.54596,-0.226146 1.10873,-0.396865 1.68835,-0.512149 C 327.82376,40.057644 328.40903,40 329,40 Z"
           style="fill:none;stroke:#000000;stroke-width:1;stroke-linecap:butt;stroke-linejoin:miter;stroke-miterlimit:10;stroke-dasharray:none;stroke-opacity:1"
           id="path3970" /></g><g
         id="g3972"
         transform="scale(2.9991949)"><text
           xml:space="preserve"
           transform="translate(335.29688,74)"
           style="font-variant:normal;font-weight:normal;font-size:12px;font-family:Arial;-inkscape-font-specification:ArialMT;writing-mode:lr-tb;fill:#000000;fill-opacity:1;fill-rule:nonzero;stroke:none"
           id="text3976"><tspan
             x="0 8.0039062 12 18.673828 25.347656 31.347656 38.021484 41.355469 50.021484 56.695312 60.029297 66.703125 72.703125 76.037109 82.710938"
             y="0"
             sodipodi:role="line"
             id="tspan3974">Breach Detected</tspan></text></g><g
         id="g3978"
         transform="matrix(2.9991949,0,0,2.9991949,1.4995974,1.4995974)"><path
           d="m 426.60001,180.16 154.30001,0.04 v 88.43"
           style="fill:none;stroke:#000000;stroke-width:1;stroke-linecap:butt;stroke-linejoin:miter;stroke-miterlimit:10;stroke-dasharray:none;stroke-opacity:1"
           id="path3980" /><path
           d="m 580.90002,273.88 -3.5,-7 3.5,1.75 3.5,-1.75 z"
           style="fill:#000000;fill-opacity:1;fill-rule:nonzero;stroke:none"
           id="path3982" /><path
           d="m 580.90002,273.88 -3.5,-7 3.5,1.75 3.5,-1.75 z"
           style="fill:none;stroke:#000000;stroke-width:1;stroke-linecap:butt;stroke-linejoin:miter;stroke-miterlimit:10;stroke-dasharray:none;stroke-opacity:1"
           id="path3984" /></g><g
         id="g3986"
         transform="scale(2.9991949)"><path
           d="m 493,175 h 15 v 13 h -15 z"
           style="fill:#ffffff;fill-opacity:1;fill-rule:nonzero;stroke:none"
           id="path3988" /><text
           xml:space="preserve"
           transform="translate(493.46875,185)"
           style="font-variant:normal;font-weight:normal;font-size:11px;font-family:Arial;-inkscape-font-specification:ArialMT;writing-mode:lr-tb;fill:#000000;fill-opacity:1;fill-rule:nonzero;stroke:none"
           id="text3992"><tspan
             x="0 7.9438477"
             y="0"
             sodipodi:role="line"
             id="tspan3990">No</tspan></text></g><g
         id="g3994"
         transform="matrix(2.9991949,0,0,2.9991949,1.4995974,1.4995974)"><path
           d="M 335.20001,180 H 246.37"
           style="fill:none;stroke:#000000;stroke-width:1;stroke-linecap:butt;stroke-linejoin:miter;stroke-miterlimit:10;stroke-dasharray:none;stroke-opacity:1"
           id="path3996" /><path
           d="m 241.12,180 7,-3.5 -1.75,3.5 1.75,3.5 z"
           style="fill:#000000;fill-opacity:1;fill-rule:nonzero;stroke:none"
           id="path3998" /><path
           d="m 241.12,180 7,-3.5 -1.75,3.5 1.75,3.5 z"
           style="fill:none;stroke:#000000;stroke-width:1;stroke-linecap:butt;stroke-linejoin:miter;stroke-miterlimit:10;stroke-dasharray:none;stroke-opacity:1"
           id="path4000" /></g><g
         id="g4002"
         transform="scale(2.9991949)"><path
           d="m 282,174 h 17 v 13 h -17 z"
           style="fill:#ffffff;fill-opacity:1;fill-rule:nonzero;stroke:none"
           id="path4004" /><text
           xml:space="preserve"
           transform="translate(281.53125,184)"
           style="font-variant:normal;font-weight:normal;font-size:11px;font-family:Arial;-inkscape-font-specification:ArialMT;writing-mode:lr-tb;fill:#000000;fill-opacity:1;fill-rule:nonzero;stroke:none"
           id="text4008"><tspan
             x="0 6.3271484 12.444824"
             y="0"
             sodipodi:role="line"
             id="tspan4006">Yes</tspan></text></g><g
         id="g4010"
         transform="matrix(2.9991949,0,0,2.9991949,1.4995974,1.4995974)"><path
           d="m 355,160 17.19,-13.75 c 5.20667,-4.16667 10.41333,-4.16667 15.62,0 l 34.38,27.5 c 5.20667,4.16667 5.20667,8.33333 0,12.5 l -34.38,27.5 c -5.20667,4.16667 -10.41333,4.16667 -15.62,0 l -34.38,-27.5 c -5.20667,-4.16667 -5.20667,-8.33333 0,-12.5 z"
           style="fill:#ffffff;fill-opacity:1;fill-rule:nonzero;stroke:none"
           id="path4012" /><path
           d="m 355,160 17.19,-13.75 c 5.20667,-4.16667 10.41333,-4.16667 15.62,0 l 34.38,27.5 c 5.20667,4.16667 5.20667,8.33333 0,12.5 l -34.38,27.5 c -5.20667,4.16667 -10.41333,4.16667 -15.62,0 l -34.38,-27.5 c -5.20667,-4.16667 -5.20667,-8.33333 0,-12.5 z"
           style="fill:none;stroke:#000000;stroke-width:1;stroke-linecap:butt;stroke-linejoin:miter;stroke-miterlimit:10;stroke-dasharray:none;stroke-opacity:1"
           id="path4014" /></g><g
         id="g4016"
         transform="matrix(2.9991949,0,0,2.9991949,0,5.78981)"><text
           xml:space="preserve"
           transform="translate(345.3125,177)"
           style="font-variant:normal;font-weight:normal;font-size:12px;font-family:Arial;-inkscape-font-specification:ArialMT;writing-mode:lr-tb;fill:#000000;fill-opacity:1;fill-rule:nonzero;stroke:none"
           id="text4020"><tspan
             x="0 3.3339844 9.3339844 12.667969 16.001953 22.675781 29.349609 32.683594 39.357422 43.353516 50.027344 56.701172 62.701172"
             y="0"
             sodipodi:role="line"
             id="tspan4018">Is the breach</tspan></text><text
           xml:space="preserve"
           transform="translate(364.32813,192)"
           style="font-variant:normal;font-weight:normal;font-size:12px;font-family:Arial;-inkscape-font-specification:ArialMT;writing-mode:lr-tb;fill:#000000;fill-opacity:1;fill-rule:nonzero;stroke:none"
           id="text4024"><tspan
             x="0 6 12.673828 15.339844 18.005859 24.679688"
             y="0"
             sodipodi:role="line"
             id="tspan4022">valid?</tspan></text></g><g
         id="g4026"
         transform="matrix(2.9991949,0,0,2.9991949,1.4995974,1.4995974)"><path
           d="m 529.91998,275 h 102 c 0.59095,0 1.17621,0.0577 1.7558,0.17291 0.57959,0.1153 1.14234,0.28601 1.68829,0.51215 0.5459,0.22613 1.06452,0.50336 1.55591,0.83166 0.4914,0.32834 0.94599,0.70142 1.36389,1.1193 0.41791,0.41784 0.79096,0.87243 1.11927,1.3638 0.32831,0.49136 0.60553,1.01001 0.83166,1.556 0.22614,0.54599 0.39691,1.10876 0.51221,1.68832 0.11529,0.57962 0.17297,1.16489 0.17297,1.75586 v 42 c 0,0.59091 -0.0577,1.17618 -0.17297,1.75577 -0.1153,0.57959 -0.28601,1.14236 -0.51215,1.68832 -0.22613,0.54596 -0.50341,1.06464 -0.83172,1.556 -0.32831,0.49137 -0.70136,0.94595 -1.11927,1.36383 -0.4179,0.41788 -0.87249,0.79096 -1.36389,1.11923 -0.49139,0.32834 -1.01001,0.60556 -1.55591,0.8317 -0.54595,0.22617 -1.1087,0.39691 -1.68829,0.51218 -0.57959,0.11529 -1.16485,0.17294 -1.7558,0.17297 h -102 c -0.591,-3e-5 -1.17627,-0.0577 -1.75586,-0.17297 -0.57965,-0.11527 -1.14245,-0.28601 -1.68841,-0.51218 -0.54596,-0.22614 -1.06458,-0.50336 -1.55591,-0.8317 -0.49139,-0.32827 -0.94598,-0.70135 -1.36383,-1.11923 -0.41791,-0.41788 -0.79102,-0.87246 -1.11932,-1.36383 -0.32831,-0.49136 -0.60553,-1.01004 -0.83167,-1.556 -0.22613,-0.54596 -0.39685,-1.10873 -0.51215,-1.68832 -0.11529,-0.57959 -0.17291,-1.16486 -0.17285,-1.75577 v -42 c -6e-5,-0.59097 0.0576,-1.17624 0.17285,-1.75586 0.1153,-0.57956 0.28602,-1.14233 0.51215,-1.68832 0.22614,-0.54599 0.50336,-1.06464 0.83167,-1.556 0.3283,-0.49137 0.70141,-0.94596 1.11932,-1.3638 0.41785,-0.41788 0.87244,-0.79096 1.36383,-1.1193 0.49133,-0.3283 1.00995,-0.60553 1.55591,-0.83166 0.54596,-0.22614 1.10876,-0.39685 1.68841,-0.51215 C 528.74371,275.05765 529.32898,275 529.91998,275 Z"
           style="fill:#ffffff;fill-opacity:1;fill-rule:nonzero;stroke:none"
           id="path4028" /><path
           d="m 529.91998,275 h 102 c 0.59095,0 1.17621,0.0577 1.7558,0.17291 0.57959,0.1153 1.14234,0.28601 1.68829,0.51215 0.5459,0.22613 1.06452,0.50336 1.55591,0.83166 0.4914,0.32834 0.94599,0.70142 1.36389,1.1193 0.41791,0.41784 0.79096,0.87243 1.11927,1.3638 0.32831,0.49136 0.60553,1.01001 0.83166,1.556 0.22614,0.54599 0.39691,1.10876 0.51221,1.68832 0.11529,0.57962 0.17297,1.16489 0.17297,1.75586 v 42 c 0,0.59091 -0.0577,1.17618 -0.17297,1.75577 -0.1153,0.57959 -0.28601,1.14236 -0.51215,1.68832 -0.22613,0.54596 -0.50341,1.06464 -0.83172,1.556 -0.32831,0.49137 -0.70136,0.94595 -1.11927,1.36383 -0.4179,0.41788 -0.87249,0.79096 -1.36389,1.11923 -0.49139,0.32834 -1.01001,0.60556 -1.55591,0.8317 -0.54595,0.22617 -1.1087,0.39691 -1.68829,0.51218 -0.57959,0.11529 -1.16485,0.17294 -1.7558,0.17297 h -102 c -0.591,-3e-5 -1.17627,-0.0577 -1.75586,-0.17297 -0.57965,-0.11527 -1.14245,-0.28601 -1.68841,-0.51218 -0.54596,-0.22614 -1.06458,-0.50336 -1.55591,-0.8317 -0.49139,-0.32827 -0.94598,-0.70135 -1.36383,-1.11923 -0.41791,-0.41788 -0.79102,-0.87246 -1.11932,-1.36383 -0.32831,-0.49136 -0.60553,-1.01004 -0.83167,-1.556 -0.22613,-0.54596 -0.39685,-1.10873 -0.51215,-1.68832 -0.11529,-0.57959 -0.17291,-1.16486 -0.17285,-1.75577 v -42 c -6e-5,-0.59097 0.0576,-1.17624 0.17285,-1.75586 0.1153,-0.57956 0.28602,-1.14233 0.51215,-1.68832 0.22614,-0.54599 0.50336,-1.06464 0.83167,-1.556 0.3283,-0.49137 0.70141,-0.94596 1.11932,-1.3638 0.41785,-0.41788 0.87244,-0.79096 1.36383,-1.1193 0.49133,-0.3283 1.00995,-0.60553 1.55591,-0.83166 0.54596,-0.22614 1.10876,-0.39685 1.68841,-0.51215 C 528.74371,275.05765 529.32898,275 529.91998,275 Z"
           style="fill:none;stroke:#000000;stroke-width:1;stroke-linecap:butt;stroke-linejoin:miter;stroke-miterlimit:10;stroke-dasharray:none;stroke-opacity:1"
           id="path4030" /></g><g
         id="g4032"
         transform="scale(2.9991949)"><text
           xml:space="preserve"
           transform="translate(526.29688,309)"
           style="font-variant:normal;font-weight:normal;font-size:12px;font-family:Arial;-inkscape-font-specification:ArialMT;writing-mode:lr-tb;fill:#000000;fill-opacity:1;fill-rule:nonzero;stroke:none"
           id="text4036"><tspan
             x="0 8.6660156 15.339844 18.673828 25.347656 32.021484 40.6875 44.021484 47.355469 54.029297 60.029297 66.029297 69.363281 75.363281 79.359375 86.033203 92.707031 96.041016 102.71484"
             y="0"
             sodipodi:role="line"
             id="tspan4034">No new task created</tspan></text></g><g
         id="g4038"
         transform="matrix(2.9991949,0,0,2.9991949,1.4995974,1.4995974)"><path
           d="m 180,210 v 25 h 198.70001 l -0.02,22.23001"
           style="fill:none;stroke:#000000;stroke-width:1;stroke-linecap:butt;stroke-linejoin:miter;stroke-miterlimit:10;stroke-dasharray:none;stroke-opacity:1"
           id="path4040" /><path
           d="M 378.67999,262.48001 375.19,255.48 378.67999,257.23001 382.19,255.48 Z"
           style="fill:#000000;fill-opacity:1;fill-rule:nonzero;stroke:none"
           id="path4042" /><path
           d="M 378.67999,262.48001 375.19,255.48 378.67999,257.23001 382.19,255.48 Z"
           style="fill:none;stroke:#000000;stroke-width:1;stroke-linecap:butt;stroke-linejoin:miter;stroke-miterlimit:10;stroke-dasharray:none;stroke-opacity:1"
           id="path4044" /><path
           d="m 129,150 h 102 c 0.59094,0 1.17621,0.0576 1.75578,0.17293 0.57961,0.11528 1.14238,0.28599 1.68834,0.51214 0.54598,0.22615 1.06464,0.50338 1.55599,0.8317 0.49136,0.32831 0.94598,0.7014 1.36384,1.11926 0.41786,0.41786 0.79094,0.87247 1.11923,1.36382 0.32833,0.49135 0.60557,1.00999 0.83172,1.55597 0.22615,0.54597 0.39686,1.10876 0.51216,1.68835 0.11528,0.57961 0.17292,1.16487 0.17294,1.75583 v 42 c -2e-5,0.59094 -0.0577,1.17621 -0.17297,1.7558 -0.11528,0.57959 -0.28598,1.14236 -0.51213,1.68832 -0.22615,0.54596 -0.50339,1.06462 -0.8317,1.55597 -0.32831,0.49137 -0.70139,0.94599 -1.11925,1.36386 -0.41786,0.41786 -0.87248,0.79094 -1.36383,1.11927 -0.49136,0.32829 -1.01002,0.60551 -1.556,0.83166 -0.54596,0.22615 -1.10873,0.39688 -1.68834,0.51218 C 232.17621,209.94235 231.59094,210 231,210 H 129 c -0.59096,0 -1.17622,-0.0576 -1.75582,-0.17294 -0.5796,-0.1153 -1.14238,-0.28601 -1.68835,-0.51216 -0.54596,-0.22615 -1.06462,-0.50338 -1.55597,-0.83168 -0.49136,-0.32833 -0.94597,-0.70141 -1.36383,-1.11927 -0.41786,-0.41787 -0.79095,-0.87249 -1.11928,-1.36384 -0.3283,-0.49135 -0.60553,-1.01001 -0.83168,-1.55597 -0.22614,-0.54598 -0.39686,-1.10875 -0.51215,-1.68834 C 120.05763,202.17621 119.99999,201.59094 120,201 v -42 c -1e-5,-0.59096 0.0576,-1.17622 0.17291,-1.75583 0.1153,-0.57959 0.28602,-1.14238 0.51216,-1.68835 0.22615,-0.54598 0.50338,-1.06464 0.83168,-1.55599 0.32833,-0.49135 0.70142,-0.94594 1.11928,-1.3638 0.41786,-0.41786 0.87247,-0.79095 1.36383,-1.11928 0.49135,-0.3283 1.01001,-0.60553 1.55597,-0.83168 0.54597,-0.22615 1.10875,-0.39686 1.68835,-0.51214 C 127.82378,150.05765 128.40904,150 129,150 Z"
           style="fill:#ffffff;fill-opacity:1;fill-rule:nonzero;stroke:none"
           id="path4046" /><path
           d="m 129,150 h 102 c 0.59094,0 1.17621,0.0576 1.75578,0.17293 0.57961,0.11528 1.14238,0.28599 1.68834,0.51214 0.54598,0.22615 1.06464,0.50338 1.55599,0.8317 0.49136,0.32831 0.94598,0.7014 1.36384,1.11926 0.41786,0.41786 0.79094,0.87247 1.11923,1.36382 0.32833,0.49135 0.60557,1.00999 0.83172,1.55597 0.22615,0.54597 0.39686,1.10876 0.51216,1.68835 0.11528,0.57961 0.17292,1.16487 0.17294,1.75583 v 42 c -2e-5,0.59094 -0.0577,1.17621 -0.17297,1.7558 -0.11528,0.57959 -0.28598,1.14236 -0.51213,1.68832 -0.22615,0.54596 -0.50339,1.06462 -0.8317,1.55597 -0.32831,0.49137 -0.70139,0.94599 -1.11925,1.36386 -0.41786,0.41786 -0.87248,0.79094 -1.36383,1.11927 -0.49136,0.32829 -1.01002,0.60551 -1.556,0.83166 -0.54596,0.22615 -1.10873,0.39688 -1.68834,0.51218 C 232.17621,209.94235 231.59094,210 231,210 H 129 c -0.59096,0 -1.17622,-0.0576 -1.75582,-0.17294 -0.5796,-0.1153 -1.14238,-0.28601 -1.68835,-0.51216 -0.54596,-0.22615 -1.06462,-0.50338 -1.55597,-0.83168 -0.49136,-0.32833 -0.94597,-0.70141 -1.36383,-1.11927 -0.41786,-0.41787 -0.79095,-0.87249 -1.11928,-1.36384 -0.3283,-0.49135 -0.60553,-1.01001 -0.83168,-1.55597 -0.22614,-0.54598 -0.39686,-1.10875 -0.51215,-1.68834 C 120.05763,202.17621 119.99999,201.59094 120,201 v -42 c -1e-5,-0.59096 0.0576,-1.17622 0.17291,-1.75583 0.1153,-0.57959 0.28602,-1.14238 0.51216,-1.68835 0.22615,-0.54598 0.50338,-1.06464 0.83168,-1.55599 0.32833,-0.49135 0.70142,-0.94594 1.11928,-1.3638 0.41786,-0.41786 0.87247,-0.79095 1.36383,-1.11928 0.49135,-0.3283 1.01001,-0.60553 1.55597,-0.83168 0.54597,-0.22615 1.10875,-0.39686 1.68835,-0.51214 C 127.82378,150.05765 128.40904,150 129,150 Z"
           style="fill:none;stroke:#000000;stroke-width:1;stroke-linecap:butt;stroke-linejoin:miter;stroke-miterlimit:10;stroke-dasharray:none;stroke-opacity:1"
           id="path4048" /></g><g
         id="g4050"
         transform="scale(2.9991949)"><text
           xml:space="preserve"
           transform="translate(130.65625,170)"
           style="font-variant:normal;font-weight:normal;font-size:12px;font-family:Arial;-inkscape-font-specification:ArialMT;writing-mode:lr-tb;fill:#000000;fill-opacity:1;fill-rule:nonzero;stroke:none"
           id="text4054"><tspan
             x="0 8.6660156 12.662109 19.335938 26.009766 29.34375 36.017578 39.351562 42.685547 49.359375 55.359375 61.359375"
             y="0"
             sodipodi:role="line"
             id="tspan4052">Create task </tspan></text><text
           xml:space="preserve"
           transform="translate(195.34375,170)"
           style="font-style:italic;font-variant:normal;font-weight:bold;font-size:12px;font-family:Arial;-inkscape-font-specification:Arial-BoldItalicMT;writing-mode:lr-tb;fill:#000000;fill-opacity:1;fill-rule:nonzero;stroke:none"
           id="text4058"><tspan
             x="0 8.6660156 15.996094 19.992188 23.326172 27.322266"
             y="0"
             sodipodi:role="line"
             id="tspan4056">Notify</tspan></text><text
           xml:space="preserve"
           transform="translate(135.65625,184)"
           style="font-style:italic;font-variant:normal;font-weight:bold;font-size:12px;font-family:Arial;-inkscape-font-specification:Arial-BoldItalicMT;writing-mode:lr-tb;fill:#000000;fill-opacity:1;fill-rule:nonzero;stroke:none"
           id="text4062"><tspan
             x="0 8.6660156 15.339844 19.335938 26.009766 29.34375 37.347656 42.017578 49.347656 53.34375 60.017578 66.691406 70.6875 74.021484 81.351562"
             y="0"
             sodipodi:role="line"
             id="tspan4060">Data Protection</tspan></text><text
           xml:space="preserve"
           transform="translate(153.34375,199)"
           style="font-style:italic;font-variant:normal;font-weight:bold;font-size:12px;font-family:Arial;-inkscape-font-specification:Arial-BoldItalicMT;writing-mode:lr-tb;fill:#000000;fill-opacity:1;fill-rule:nonzero;stroke:none"
           id="text4066"><tspan
             x="0 8.6660156 15.996094 19.992188 27.322266 34.652344 39.322266 42.65625 46.652344"
             y="0"
             sodipodi:role="line"
             id="tspan4064">Authority</tspan></text></g><g
         id="g4068"
         transform="matrix(2.9991949,0,0,2.9991949,1.4995974,1.4995974)"><path
           d="M 435.20001,305.63 480.5,305.60001 514.54999,305.09"
           style="fill:none;stroke:#000000;stroke-width:1;stroke-linecap:butt;stroke-linejoin:miter;stroke-miterlimit:10;stroke-dasharray:none;stroke-opacity:1"
           id="path4070" /><path
           d="m 519.79999,305.01999 -6.95001,3.60001 1.70001,-3.53 -1.79999,-3.47 z"
           style="fill:#000000;fill-opacity:1;fill-rule:nonzero;stroke:none"
           id="path4072" /><path
           d="m 519.79999,305.01999 -6.95001,3.60001 1.70001,-3.53 -1.79999,-3.47 z"
           style="fill:none;stroke:#000000;stroke-width:1;stroke-linecap:butt;stroke-linejoin:miter;stroke-miterlimit:10;stroke-dasharray:none;stroke-opacity:1"
           id="path4074" /></g><g
         id="g4076"
         transform="scale(2.9991949)"><path
           d="m 421,299 h 15 v 13 h -15 z"
           style="fill:#ffffff;fill-opacity:1;fill-rule:nonzero;stroke:none"
           id="path4078" /><text
           xml:space="preserve"
           transform="translate(421.46875,309)"
           style="font-variant:normal;font-weight:normal;font-size:11px;font-family:Arial;-inkscape-font-specification:ArialMT;writing-mode:lr-tb;fill:#000000;fill-opacity:1;fill-rule:nonzero;stroke:none"
           id="text4082"><tspan
             x="0 7.9438477"
             y="0"
             sodipodi:role="line"
             id="tspan4080">No</tspan></text><path
           d="m 463,302 h 15 v 13 h -15 z"
           style="fill:#ffffff;fill-opacity:1;fill-rule:nonzero;stroke:none"
           id="path4084" /><text
           xml:space="preserve"
           transform="translate(463.46875,312)"
           style="font-variant:normal;font-weight:normal;font-size:11px;font-family:Arial;-inkscape-font-specification:ArialMT;writing-mode:lr-tb;fill:#000000;fill-opacity:1;fill-rule:nonzero;stroke:none"
           id="text4088"><tspan
             x="0 7.9438477"
             y="0"
             sodipodi:role="line"
             id="tspan4086">No</tspan></text></g><g
         id="g4090"
         transform="matrix(2.9991949,0,0,2.9991949,1.4995974,1.4995974)"><path
           d="M 325.88,304.37 280,304.4 246.37,304.9"
           style="fill:none;stroke:#000000;stroke-width:1;stroke-linecap:butt;stroke-linejoin:miter;stroke-miterlimit:10;stroke-dasharray:none;stroke-opacity:1"
           id="path4092" /><path
           d="m 241.12,304.98001 6.94,-3.60001 -1.69,3.51999 1.8,3.48001 z"
           style="fill:#000000;fill-opacity:1;fill-rule:nonzero;stroke:none"
           id="path4094" /><path
           d="m 241.12,304.98001 6.94,-3.60001 -1.69,3.51999 1.8,3.48001 z"
           style="fill:none;stroke:#000000;stroke-width:1;stroke-linecap:butt;stroke-linejoin:miter;stroke-miterlimit:10;stroke-dasharray:none;stroke-opacity:1"
           id="path4096" /></g><g
         id="g4098"
         transform="scale(2.9991949)"><path
           d="m 281,298 h 17 v 13 h -17 z"
           style="fill:#ffffff;fill-opacity:1;fill-rule:nonzero;stroke:none"
           id="path4100" /><text
           xml:space="preserve"
           transform="translate(280.53125,308)"
           style="font-variant:normal;font-weight:normal;font-size:11px;font-family:Arial;-inkscape-font-specification:ArialMT;writing-mode:lr-tb;fill:#000000;fill-opacity:1;fill-rule:nonzero;stroke:none"
           id="text4104"><tspan
             x="0 6.3271484 12.444824"
             y="0"
             sodipodi:role="line"
             id="tspan4102">Yes</tspan></text></g><g
         id="g4106"
         transform="matrix(2.9991949,0,0,2.9991949,1.4995974,1.4995974)"><path
           d="m 380.23999,346.22 0.5,31.82001"
           style="fill:none;stroke:#000000;stroke-width:1;stroke-linecap:butt;stroke-linejoin:miter;stroke-miterlimit:10;stroke-dasharray:none;stroke-opacity:1"
           id="path4108" /><path
           d="m 380.82001,383.29001 -3.61002,-6.94 3.53,1.69 3.47,-1.80002 z"
           style="fill:#000000;fill-opacity:1;fill-rule:nonzero;stroke:none"
           id="path4110" /><path
           d="m 380.82001,383.29001 -3.61002,-6.94 3.53,1.69 3.47,-1.80002 z"
           style="fill:none;stroke:#000000;stroke-width:1;stroke-linecap:butt;stroke-linejoin:miter;stroke-miterlimit:10;stroke-dasharray:none;stroke-opacity:1"
           id="path4112" /><path
           d="M 350,282.5 372,266 c 5.33334,-4 10.66666,-4 16,0 l 44,33 c 5.33334,4 5.33334,8 0,12 l -44,33 c -5.33334,4 -10.66666,4 -16,0 l -44,-33 c -5.33334,-4 -5.33334,-8 0,-12 z"
           style="fill:#ffffff;fill-opacity:1;fill-rule:nonzero;stroke:none"
           id="path4114" /><path
           d="M 350,282.5 372,266 c 5.33334,-4 10.66666,-4 16,0 l 44,33 c 5.33334,4 5.33334,8 0,12 l -44,33 c -5.33334,4 -10.66666,4 -16,0 l -44,-33 c -5.33334,-4 -5.33334,-8 0,-12 z"
           style="fill:none;stroke:#000000;stroke-width:1;stroke-linecap:butt;stroke-linejoin:miter;stroke-miterlimit:10;stroke-dasharray:none;stroke-opacity:1"
           id="path4116" /></g><g
         id="g4118"
         transform="matrix(2.9991949,0,0,2.9991949,0,-10.232326)"><text
           xml:space="preserve"
           transform="translate(346.3125,302)"
           style="font-variant:normal;font-weight:normal;font-size:12px;font-family:Arial;-inkscape-font-specification:ArialMT;writing-mode:lr-tb;fill:#000000;fill-opacity:1;fill-rule:nonzero;stroke:none"
           id="text4122"><tspan
             x="0 8.6660156 11.332031 18.005859 21.339844 24.673828 31.347656 38.021484 41.355469 50.021484 58.025391"
             y="0"
             sodipodi:role="line"
             id="tspan4120">Did the DPO</tspan></text><text
           xml:space="preserve"
           transform="translate(334.64063,317)"
           style="font-variant:normal;font-weight:normal;font-size:12px;font-family:Arial;-inkscape-font-specification:ArialMT;writing-mode:lr-tb;fill:#000000;fill-opacity:1;fill-rule:nonzero;stroke:none"
           id="text4126"><tspan
             x="0 3.9960938 10.669922 13.335938 20.009766 26.009766 29.34375 32.677734 36.011719 42.685547 49.359375 52.693359 56.689453 63.363281 70.037109 76.710938 80.707031 84.041016"
             y="0"
             sodipodi:role="line"
             id="tspan4124">reject the report?</tspan></text></g><g
         id="g4128"
         transform="matrix(2.9991949,0,0,2.9991949,1.4995974,1.4995974)"><path
           d="m 129,275 h 102 c 0.59094,0 1.17621,0.0577 1.75578,0.17291 0.57961,0.1153 1.14238,0.28601 1.68834,0.51215 0.54598,0.22613 1.06464,0.50336 1.55599,0.83166 0.49136,0.32834 0.94598,0.70142 1.36384,1.1193 0.41786,0.41784 0.79094,0.87243 1.11923,1.3638 0.32833,0.49136 0.60557,1.01001 0.83172,1.556 0.22615,0.54599 0.39686,1.10876 0.51216,1.68832 0.11528,0.57962 0.17292,1.16489 0.17294,1.75586 v 42 c -2e-5,0.59091 -0.0577,1.17618 -0.17297,1.75577 -0.11528,0.57959 -0.28598,1.14236 -0.51213,1.68832 -0.22615,0.54596 -0.50339,1.06464 -0.8317,1.556 -0.32831,0.49137 -0.70139,0.94595 -1.11925,1.36383 -0.41786,0.41788 -0.87248,0.79096 -1.36383,1.11923 -0.49136,0.32834 -1.01002,0.60556 -1.556,0.8317 -0.54596,0.22617 -1.10873,0.39691 -1.68834,0.51218 C 232.17621,334.94232 231.59094,334.99997 231,335 H 129 c -0.59096,-3e-5 -1.17622,-0.0577 -1.75582,-0.17297 -0.5796,-0.11527 -1.14238,-0.28601 -1.68835,-0.51218 -0.54596,-0.22614 -1.06462,-0.50336 -1.55597,-0.8317 -0.49136,-0.32827 -0.94597,-0.70135 -1.36383,-1.11923 -0.41786,-0.41788 -0.79095,-0.87246 -1.11928,-1.36383 -0.3283,-0.49136 -0.60553,-1.01004 -0.83168,-1.556 -0.22614,-0.54596 -0.39686,-1.10873 -0.51215,-1.68832 C 120.05763,327.17618 119.99999,326.59091 120,326 v -42 c -1e-5,-0.59097 0.0576,-1.17624 0.17291,-1.75586 0.1153,-0.57956 0.28602,-1.14233 0.51216,-1.68832 0.22615,-0.54599 0.50338,-1.06464 0.83168,-1.556 0.32833,-0.49137 0.70142,-0.94596 1.11928,-1.3638 0.41786,-0.41788 0.87247,-0.79096 1.36383,-1.1193 0.49135,-0.3283 1.01001,-0.60553 1.55597,-0.83166 0.54597,-0.22614 1.10875,-0.39685 1.68835,-0.51215 C 127.82378,275.05765 128.40904,275 129,275 Z"
           style="fill:#ffffff;fill-opacity:1;fill-rule:nonzero;stroke:none"
           id="path4130" /><path
           d="m 129,275 h 102 c 0.59094,0 1.17621,0.0577 1.75578,0.17291 0.57961,0.1153 1.14238,0.28601 1.68834,0.51215 0.54598,0.22613 1.06464,0.50336 1.55599,0.83166 0.49136,0.32834 0.94598,0.70142 1.36384,1.1193 0.41786,0.41784 0.79094,0.87243 1.11923,1.3638 0.32833,0.49136 0.60557,1.01001 0.83172,1.556 0.22615,0.54599 0.39686,1.10876 0.51216,1.68832 0.11528,0.57962 0.17292,1.16489 0.17294,1.75586 v 42 c -2e-5,0.59091 -0.0577,1.17618 -0.17297,1.75577 -0.11528,0.57959 -0.28598,1.14236 -0.51213,1.68832 -0.22615,0.54596 -0.50339,1.06464 -0.8317,1.556 -0.32831,0.49137 -0.70139,0.94595 -1.11925,1.36383 -0.41786,0.41788 -0.87248,0.79096 -1.36383,1.11923 -0.49136,0.32834 -1.01002,0.60556 -1.556,0.8317 -0.54596,0.22617 -1.10873,0.39691 -1.68834,0.51218 C 232.17621,334.94232 231.59094,334.99997 231,335 H 129 c -0.59096,-3e-5 -1.17622,-0.0577 -1.75582,-0.17297 -0.5796,-0.11527 -1.14238,-0.28601 -1.68835,-0.51218 -0.54596,-0.22614 -1.06462,-0.50336 -1.55597,-0.8317 -0.49136,-0.32827 -0.94597,-0.70135 -1.36383,-1.11923 -0.41786,-0.41788 -0.79095,-0.87246 -1.11928,-1.36383 -0.3283,-0.49136 -0.60553,-1.01004 -0.83168,-1.556 -0.22614,-0.54596 -0.39686,-1.10873 -0.51215,-1.68832 C 120.05763,327.17618 119.99999,326.59091 120,326 v -42 c -1e-5,-0.59097 0.0576,-1.17624 0.17291,-1.75586 0.1153,-0.57956 0.28602,-1.14233 0.51216,-1.68832 0.22615,-0.54599 0.50338,-1.06464 0.83168,-1.556 0.32833,-0.49137 0.70142,-0.94596 1.11928,-1.3638 0.41786,-0.41788 0.87247,-0.79096 1.36383,-1.1193 0.49135,-0.3283 1.01001,-0.60553 1.55597,-0.83166 0.54597,-0.22614 1.10875,-0.39685 1.68835,-0.51215 C 127.82378,275.05765 128.40904,275 129,275 Z"
           style="fill:none;stroke:#000000;stroke-width:1;stroke-linecap:butt;stroke-linejoin:miter;stroke-miterlimit:10;stroke-dasharray:none;stroke-opacity:1"
           id="path4132" /></g><g
         id="g4134"
         transform="scale(2.9991949)"><text
           xml:space="preserve"
           transform="translate(149.3125,288)"
           style="font-variant:normal;font-weight:normal;font-size:12px;font-family:Arial;-inkscape-font-specification:ArialMT;writing-mode:lr-tb;fill:#000000;fill-opacity:1;fill-rule:nonzero;stroke:none"
           id="text4138"><tspan
             x="0 8.6660156 12.662109 19.335938 26.009766 29.34375 36.017578 39.351562 42.685547 49.359375 55.359375"
             y="0"
             sodipodi:role="line"
             id="tspan4136">Create task</tspan></text><text
           xml:space="preserve"
           transform="translate(123.32813,302)"
           style="font-style:italic;font-variant:normal;font-weight:bold;font-size:12px;font-family:Arial;-inkscape-font-specification:Arial-BoldItalicMT;writing-mode:lr-tb;fill:#000000;fill-opacity:1;fill-rule:nonzero;stroke:none"
           id="text4142"><tspan
             x="0 9.3339844 16.007812 20.003906 23.337891 32.003906 39.333984 46.664062 53.337891 57.333984 64.007812 71.337891 74.671875 83.337891 90.011719 97.341797 104.67188 109.3418"
             y="0"
             sodipodi:role="line"
             id="tspan4140">Get Updated Report</tspan></text><text
           xml:space="preserve"
           transform="translate(166.67187,317)"
           style="font-style:italic;font-variant:normal;font-weight:bold;font-size:12px;font-family:Arial;-inkscape-font-specification:Arial-BoldItalicMT;writing-mode:lr-tb;fill:#000000;fill-opacity:1;fill-rule:nonzero;stroke:none"
           id="text4146"><tspan
             x="0 3.9960938 8.6660156 15.996094"
             y="0"
             sodipodi:role="line"
             id="tspan4144">from</tspan></text><text
           xml:space="preserve"
           transform="translate(167,331)"
           style="font-style:italic;font-variant:normal;font-weight:bold;font-size:12px;font-family:Arial;-inkscape-font-specification:Arial-BoldItalicMT;writing-mode:lr-tb;fill:#000000;fill-opacity:1;fill-rule:nonzero;stroke:none"
           id="text4150"><tspan
             x="0 8.6660156 16.669922"
             y="0"
             sodipodi:role="line"
             id="tspan4148">DPO</tspan></text></g><g
         id="g4152"
         transform="matrix(2.9991949,0,0,2.9991949,1.4995974,1.4995974)"><path
           d="M 325.88,424.37 280,424.4 246.37,424.9"
           style="fill:none;stroke:#000000;stroke-width:1;stroke-linecap:butt;stroke-linejoin:miter;stroke-miterlimit:10;stroke-dasharray:none;stroke-opacity:1"
           id="path4154" /><path
           d="m 241.12,424.98001 6.94,-3.60001 -1.69,3.51999 1.8,3.48001 z"
           style="fill:#000000;fill-opacity:1;fill-rule:nonzero;stroke:none"
           id="path4156" /><path
           d="m 241.12,424.98001 6.94,-3.60001 -1.69,3.51999 1.8,3.48001 z"
           style="fill:none;stroke:#000000;stroke-width:1;stroke-linecap:butt;stroke-linejoin:miter;stroke-miterlimit:10;stroke-dasharray:none;stroke-opacity:1"
           id="path4158" /></g><g
         id="g4160"
         transform="scale(2.9991949)"><path
           d="m 281,418 h 17 v 13 h -17 z"
           style="fill:#ffffff;fill-opacity:1;fill-rule:nonzero;stroke:none"
           id="path4162" /><text
           xml:space="preserve"
           transform="translate(280.53125,428)"
           style="font-variant:normal;font-weight:normal;font-size:11px;font-family:Arial;-inkscape-font-specification:ArialMT;writing-mode:lr-tb;fill:#000000;fill-opacity:1;fill-rule:nonzero;stroke:none"
           id="text4166"><tspan
             x="0 6.3271484 12.444824"
             y="0"
             sodipodi:role="line"
             id="tspan4164">Yes</tspan></text></g><g
         id="g4168"
         transform="matrix(2.9991949,0,0,2.9991949,1.4995974,1.4995974)"><path
           d="m 436.64001,425 h 144.26001 l 0.02,-83.63"
           style="fill:none;stroke:#000000;stroke-width:1;stroke-linecap:butt;stroke-linejoin:miter;stroke-miterlimit:10;stroke-dasharray:none;stroke-opacity:1"
           id="path4170" /><path
           d="m 580.91998,336.12 3.5,7 -3.5,-1.75 -3.5,1.75 z"
           style="fill:#000000;fill-opacity:1;fill-rule:nonzero;stroke:none"
           id="path4172" /><path
           d="m 580.91998,336.12 3.5,7 -3.5,-1.75 -3.5,1.75 z"
           style="fill:none;stroke:#000000;stroke-width:1;stroke-linecap:butt;stroke-linejoin:miter;stroke-miterlimit:10;stroke-dasharray:none;stroke-opacity:1"
           id="path4174" /></g><g
         id="g4176"
         transform="scale(2.9991949)"><path
           d="m 493,420 h 15 v 13 h -15 z"
           style="fill:#ffffff;fill-opacity:1;fill-rule:nonzero;stroke:none"
           id="path4178" /><text
           xml:space="preserve"
           transform="translate(493.46875,430)"
           style="font-variant:normal;font-weight:normal;font-size:11px;font-family:Arial;-inkscape-font-specification:ArialMT;writing-mode:lr-tb;fill:#000000;fill-opacity:1;fill-rule:nonzero;stroke:none"
           id="text4182"><tspan
             x="0 7.9438477"
             y="0"
             sodipodi:role="line"
             id="tspan4180">No</tspan></text></g><g
         id="g4184"
         transform="matrix(2.9991949,0,0,2.9991949,1.4995974,1.4995974)"><path
           d="M 350,402.5 372,386 c 5.33334,-4 10.66666,-4 16,0 l 44,33 c 5.33334,4 5.33334,8 0,12 l -44,33 c -5.33334,4 -10.66666,4 -16,0 l -44,-33 c -5.33334,-4 -5.33334,-8 0,-12 z"
           style="fill:#ffffff;fill-opacity:1;fill-rule:nonzero;stroke:none"
           id="path4186" /><path
           d="M 350,402.5 372,386 c 5.33334,-4 10.66666,-4 16,0 l 44,33 c 5.33334,4 5.33334,8 0,12 l -44,33 c -5.33334,4 -10.66666,4 -16,0 l -44,-33 c -5.33334,-4 -5.33334,-8 0,-12 z"
           style="fill:none;stroke:#000000;stroke-width:1;stroke-linecap:butt;stroke-linejoin:miter;stroke-miterlimit:10;stroke-dasharray:none;stroke-opacity:1"
           id="path4188" /></g><g
         id="g4190"
         transform="matrix(2.9991949,0,0,2.9991949,2.5580814,0)"><text
           xml:space="preserve"
           transform="translate(347.75,415)"
           style="font-variant:normal;font-weight:normal;font-size:12px;font-family:Arial;-inkscape-font-specification:ArialMT;writing-mode:lr-tb;fill:#000000;fill-opacity:1;fill-rule:nonzero;stroke:none"
           id="text4194"><tspan
             x="0 8.0039062 12 18.673828 22.007812 28.681641 31.798828 35.132812 41.806641 47.806641 51.140625 57.814453"
             y="0"
             sodipodi:role="line"
             id="tspan4192">Are affected</tspan></text><text
           xml:space="preserve"
           transform="translate(344.3125,429)"
           style="font-variant:normal;font-weight:normal;font-size:12px;font-family:Arial;-inkscape-font-specification:ArialMT;writing-mode:lr-tb;fill:#000000;fill-opacity:1;fill-rule:nonzero;stroke:none"
           id="text4198"><tspan
             x="0 6.6738281 12.673828 19.347656 23.34375 29.34375 32.677734 41.34375 44.009766 50.683594 57.357422 60.691406 67.365234"
             y="0"
             sodipodi:role="line"
             id="tspan4196">users High or</tspan></text><text
           xml:space="preserve"
           transform="translate(347.65625,444)"
           style="font-variant:normal;font-weight:normal;font-size:12px;font-family:Arial;-inkscape-font-specification:ArialMT;writing-mode:lr-tb;fill:#000000;fill-opacity:1;fill-rule:nonzero;stroke:none"
           id="text4202"><tspan
             x="0 9.9960938 16.669922 23.34375 26.009766 32.683594 42.679688 46.013672 50.009766 52.675781 58.675781"
             y="0"
             sodipodi:role="line"
             id="tspan4200">Medium risk</tspan></text></g><g
         id="g4204"
         transform="matrix(2.9991949,0,0,2.9991949,1.4995974,1.4995974)"><path
           d="m 129,395 h 102 c 0.59094,0 1.17621,0.0577 1.75578,0.17291 0.57961,0.11527 1.14238,0.28598 1.68834,0.51215 0.54598,0.22616 1.06464,0.50339 1.55599,0.83169 0.49136,0.32831 0.94598,0.70139 1.36384,1.11924 0.41786,0.41784 0.79094,0.87243 1.11923,1.3638 0.32833,0.49136 0.60557,1.01001 0.83172,1.556 0.22615,0.54599 0.39686,1.10876 0.51216,1.68835 0.11528,0.57962 0.17292,1.16492 0.17294,1.75586 v 42 c -2e-5,0.59094 -0.0577,1.17621 -0.17297,1.75577 -0.11528,0.57956 -0.28598,1.14233 -0.51213,1.68829 -0.22615,0.54599 -0.50339,1.06464 -0.8317,1.556 -0.32831,0.49136 -0.70139,0.94598 -1.11925,1.36386 -0.41786,0.41788 -0.87248,0.79096 -1.36383,1.11926 -0.49136,0.32831 -1.01002,0.60553 -1.556,0.83167 -0.54596,0.22617 -1.10873,0.39688 -1.68834,0.51218 C 232.17621,454.94232 231.59094,454.99997 231,455 H 129 c -0.59096,-3e-5 -1.17622,-0.0577 -1.75582,-0.17297 -0.5796,-0.1153 -1.14238,-0.28601 -1.68835,-0.51218 -0.54596,-0.22614 -1.06462,-0.50336 -1.55597,-0.83167 -0.49136,-0.3283 -0.94597,-0.70138 -1.36383,-1.11926 -0.41786,-0.41788 -0.79095,-0.87246 -1.11928,-1.36383 -0.3283,-0.49136 -0.60553,-1.01004 -0.83168,-1.556 -0.22614,-0.54596 -0.39686,-1.10873 -0.51215,-1.68832 C 120.05763,447.17621 119.99999,446.59094 120,446 v -42 c -1e-5,-0.59094 0.0576,-1.17621 0.17291,-1.75583 0.1153,-0.57962 0.28602,-1.14239 0.51216,-1.68838 0.22615,-0.54599 0.50338,-1.06464 0.83168,-1.556 0.32833,-0.49137 0.70142,-0.94596 1.11928,-1.3638 0.41786,-0.41785 0.87247,-0.79093 1.36383,-1.11924 0.49135,-0.3283 1.01001,-0.60553 1.55597,-0.83169 0.54597,-0.22617 1.10875,-0.39688 1.68835,-0.51215 C 127.82378,395.05765 128.40904,395 129,395 Z"
           style="fill:#ffffff;fill-opacity:1;fill-rule:nonzero;stroke:none"
           id="path4206" /><path
           d="m 129,395 h 102 c 0.59094,0 1.17621,0.0577 1.75578,0.17291 0.57961,0.11527 1.14238,0.28598 1.68834,0.51215 0.54598,0.22616 1.06464,0.50339 1.55599,0.83169 0.49136,0.32831 0.94598,0.70139 1.36384,1.11924 0.41786,0.41784 0.79094,0.87243 1.11923,1.3638 0.32833,0.49136 0.60557,1.01001 0.83172,1.556 0.22615,0.54599 0.39686,1.10876 0.51216,1.68835 0.11528,0.57962 0.17292,1.16492 0.17294,1.75586 v 42 c -2e-5,0.59094 -0.0577,1.17621 -0.17297,1.75577 -0.11528,0.57956 -0.28598,1.14233 -0.51213,1.68829 -0.22615,0.54599 -0.50339,1.06464 -0.8317,1.556 -0.32831,0.49136 -0.70139,0.94598 -1.11925,1.36386 -0.41786,0.41788 -0.87248,0.79096 -1.36383,1.11926 -0.49136,0.32831 -1.01002,0.60553 -1.556,0.83167 -0.54596,0.22617 -1.10873,0.39688 -1.68834,0.51218 C 232.17621,454.94232 231.59094,454.99997 231,455 H 129 c -0.59096,-3e-5 -1.17622,-0.0577 -1.75582,-0.17297 -0.5796,-0.1153 -1.14238,-0.28601 -1.68835,-0.51218 -0.54596,-0.22614 -1.06462,-0.50336 -1.55597,-0.83167 -0.49136,-0.3283 -0.94597,-0.70138 -1.36383,-1.11926 -0.41786,-0.41788 -0.79095,-0.87246 -1.11928,-1.36383 -0.3283,-0.49136 -0.60553,-1.01004 -0.83168,-1.556 -0.22614,-0.54596 -0.39686,-1.10873 -0.51215,-1.68832 C 120.05763,447.17621 119.99999,446.59094 120,446 v -42 c -1e-5,-0.59094 0.0576,-1.17621 0.17291,-1.75583 0.1153,-0.57962 0.28602,-1.14239 0.51216,-1.68838 0.22615,-0.54599 0.50338,-1.06464 0.83168,-1.556 0.32833,-0.49137 0.70142,-0.94596 1.11928,-1.3638 0.41786,-0.41785 0.87247,-0.79093 1.36383,-1.11924 0.49135,-0.3283 1.01001,-0.60553 1.55597,-0.83169 0.54597,-0.22617 1.10875,-0.39688 1.68835,-0.51215 C 127.82378,395.05765 128.40904,395 129,395 Z"
           style="fill:none;stroke:#000000;stroke-width:1;stroke-linecap:butt;stroke-linejoin:miter;stroke-miterlimit:10;stroke-dasharray:none;stroke-opacity:1"
           id="path4208" /></g><g
         id="g4210"
         transform="scale(2.9991949)"><text
           xml:space="preserve"
           transform="translate(149.3125,415)"
           style="font-variant:normal;font-weight:normal;font-size:12px;font-family:Arial;-inkscape-font-specification:ArialMT;writing-mode:lr-tb;fill:#000000;fill-opacity:1;fill-rule:nonzero;stroke:none"
           id="text4214"><tspan
             x="0 8.6660156 12.662109 19.335938 26.009766 29.34375 36.017578 39.351562 42.685547 49.359375 55.359375"
             y="0"
             sodipodi:role="line"
             id="tspan4212">Create task</tspan></text><text
           xml:space="preserve"
           transform="translate(137.4375,429)"
           style="font-style:italic;font-variant:normal;font-weight:bold;font-size:12px;font-family:Arial;-inkscape-font-specification:Arial-BoldItalicMT;writing-mode:lr-tb;fill:#000000;fill-opacity:1;fill-rule:nonzero;stroke:none"
           id="text4218"><tspan
             x="0 8.6660156 15.996094 19.992188 23.326172 27.322266 33.996094 37.330078 45.996094 49.775391 53.771484 60.445312 67.119141 71.115234 77.789062"
             y="0"
             sodipodi:role="line"
             id="tspan4216">Notify Affected</tspan></text><text
           xml:space="preserve"
           transform="translate(163.98437,444)"
           style="font-style:italic;font-variant:normal;font-weight:bold;font-size:12px;font-family:Arial;-inkscape-font-specification:Arial-BoldItalicMT;writing-mode:lr-tb;fill:#000000;fill-opacity:1;fill-rule:nonzero;stroke:none"
           id="text4222"><tspan
             x="0 7.3300781 14.003906 20.677734 25.347656"
             y="0"
             sodipodi:role="line"
             id="tspan4220">users</tspan></text></g></g></g></svg>
